<svg width="22" height="22" viewBox="0 0 22 22" fill="none" xmlns="http://www.w3.org/2000/svg">
<g clip-path="url(#clip0_400_245)">
<path d="M21.5877 10.1256C21.463 8.10736 20.7503 6.16975 19.5377 4.55163C18.3251 2.9335 16.6654 1.70561 14.7633 1.01932C12.8613 0.333028 10.8 0.218347 8.83353 0.689411C6.86708 1.16048 5.08146 2.19669 3.69681 3.67032C2.31216 5.14394 1.38901 6.99055 1.04117 8.98249C0.693322 10.9744 0.935989 13.0246 1.73925 14.8803C2.54252 16.736 3.87126 18.3161 5.56167 19.4257C7.25209 20.5354 9.23027 21.1261 11.2524 21.1251H17.2752C18.4186 21.1239 19.5148 20.6692 20.3233 19.8607C21.1318 19.0522 21.5866 17.956 21.5877 16.8126V10.1256ZM19.8627 16.8126C19.8627 17.4988 19.5901 18.1569 19.1048 18.6422C18.6196 19.1275 17.9614 19.4001 17.2752 19.4001H11.2524C10.0353 19.3995 8.83205 19.1425 7.72102 18.6456C6.60999 18.1488 5.61615 17.4234 4.80431 16.5167C3.98853 15.6105 3.37594 14.5403 3.00763 13.3779C2.63931 12.2155 2.52377 10.9878 2.66876 9.77715C2.89769 7.86752 3.75567 6.0884 5.10742 4.72024C6.45918 3.35209 8.22783 2.47273 10.1346 2.22078C10.5065 2.17417 10.881 2.15055 11.2558 2.15006C13.2658 2.14458 15.2136 2.84688 16.7577 4.13381C17.6595 4.88327 18.3996 5.80805 18.9334 6.85209C19.4671 7.89613 19.7833 9.03767 19.8627 10.2075V16.8126Z" fill="#4D4D4D"/>
<path d="M7.7873 8.18756H11.2373C11.4661 8.18756 11.6854 8.09668 11.8472 7.93493C12.0089 7.77318 12.0998 7.5538 12.0998 7.32506C12.0998 7.09631 12.0089 6.87693 11.8472 6.71518C11.6854 6.55343 11.4661 6.46255 11.2373 6.46255H7.7873C7.55856 6.46255 7.33918 6.55343 7.17743 6.71518C7.01568 6.87693 6.9248 7.09631 6.9248 7.32506C6.9248 7.5538 7.01568 7.77318 7.17743 7.93493C7.33918 8.09668 7.55856 8.18756 7.7873 8.18756Z" fill="#4D4D4D"/>
<path d="M14.6873 9.91254H7.7873C7.55856 9.91254 7.33918 10.0034 7.17743 10.1652C7.01568 10.3269 6.9248 10.5463 6.9248 10.775C6.9248 11.0038 7.01568 11.2232 7.17743 11.3849C7.33918 11.5467 7.55856 11.6375 7.7873 11.6375H14.6873C14.9161 11.6375 15.1354 11.5467 15.2972 11.3849C15.4589 11.2232 15.5498 11.0038 15.5498 10.775C15.5498 10.5463 15.4589 10.3269 15.2972 10.1652C15.1354 10.0034 14.9161 9.91254 14.6873 9.91254Z" fill="#4D4D4D"/>
<path d="M14.6873 13.3625H7.7873C7.55856 13.3625 7.33918 13.4534 7.17743 13.6152C7.01568 13.7769 6.9248 13.9963 6.9248 14.225C6.9248 14.4538 7.01568 14.6732 7.17743 14.8349C7.33918 14.9967 7.55856 15.0875 7.7873 15.0875H14.6873C14.9161 15.0875 15.1354 14.9967 15.2972 14.8349C15.4589 14.6732 15.5498 14.4538 15.5498 14.225C15.5498 13.9963 15.4589 13.7769 15.2972 13.6152C15.1354 13.4534 14.9161 13.3625 14.6873 13.3625Z" fill="#4D4D4D"/>
</g>
<defs>
<clipPath id="clip0_400_245">
<rect width="20.7" height="20.7" fill="white" transform="translate(0.887695 0.425049)"/>
</clipPath>
</defs>
</svg>
