<?xml version="1.0" encoding="utf-8"?>
<!-- Generator: Adobe Illustrator 24.1.3, SVG Export Plug-In . SVG Version: 6.00 Build 0)  -->
<svg version="1.1" id="Layer_1" xmlns="http://www.w3.org/2000/svg" xmlns:xlink="http://www.w3.org/1999/xlink" x="0px" y="0px"
	 viewBox="0 0 26 24" style="enable-background:new 0 0 26 24;" xml:space="preserve">
<style type="text/css">
	.st0{fill:#808080;}
</style>
<g>
	<g>
		<path class="st0" d="M19.8,20.3h-4.1V18c0-0.9-0.5-2.7-2.2-2.7h-3c-0.3,0-0.5,0.2-0.5,0.5s0.2,0.5,0.5,0.5h3
			c1.2,0,1.2,1.7,1.2,1.8v3.3h5.1c0.3,0,0.5-0.2,0.5-0.5C20.3,20.5,20.1,20.3,19.8,20.3z"/>
		<path class="st0" d="M22.7,4.7c-0.4-0.4-2.2-1.6-5.6-0.6c-1,0.3-1.7,0.7-2.2,1c-0.9,0.5-1.7,1-4,1c-1.3,0-2.8-0.8-3.5-1.3
			c0.7-0.4,2-1.1,3.6-1.1l0,0c2.2,0,3,0.7,3,0.7c0.2,0.2,0.5,0.2,0.7,0s0.2-0.5,0-0.7c-0.1-0.1-1.1-0.9-3.7-0.9l0,0
			c-2.6,0-4.6,1.6-4.7,1.7L5.7,4.8l0.5,0.4C6.3,5.3,8.7,7.1,10.9,7c2.6,0,3.5-0.5,4.5-1.1c0.5-0.3,1.1-0.6,2-0.9
			c3-0.9,4.4,0.1,4.6,0.4c1.1,1,1.4,1.9,0.9,2.6c-0.9,1.2-4,2.8-4,2.9L18.6,11v0.3c0,0,0.2,1.9,0,3.3c-0.1,1.3-1.4,2.8-1.4,2.8
			c-0.2,0.2-0.1,0.5,0.1,0.7c0.1,0.1,0.2,0.1,0.3,0.1c0.1,0,0.3-0.1,0.4-0.2s1.4-1.7,1.6-3.3c0.1-1.2,0.1-2.6,0-3.2
			c0.8-0.5,3.2-1.8,4.1-3C24.2,7.9,24.8,6.5,22.7,4.7z"/>
		<circle class="st0" cx="20.4" cy="6.7" r="0.5"/>
		<path class="st0" d="M12.7,19.3c-0.3,0-0.7,0-1,0c-1.3,0-2,0.1-3.1-0.4c-0.7-0.3-1.2-0.6-1.7-1.1c-1.1-1.4-0.5-3.7-0.2-4.2v-0.1
			c0-0.1,1.1-1.8,3.9-2c1-0.1,2.2-0.2,3.2-0.8c1.2-0.7,2-2.1,2.3-4c0,0,0,0,0-0.1c-0.1,0.1-0.2,0.1-0.3,0.2
			c-0.2,0.1-0.5,0.3-0.8,0.4c-0.2,1-0.7,2.1-1.7,2.6c-0.8,0.5-1.9,0.6-2.8,0.6c-3,0.3-4.3,2.3-4.5,2.6c-0.2,0.2-0.3,0.6-0.5,1.1
			c-0.3-0.8-1-1.3-1.8-1.3c-1,0-1.9,0.9-1.9,1.9s0.9,1.9,1.9,1.9c0.7,0,1.2-0.3,1.6-0.9c0,0.9,0.2,1.9,0.9,2.6
			c0.6,0.8,1.4,1.1,2.1,1.4c1,0.4,1.4,0.5,2.4,0.5c0.4,0,0.7,0,1,0s0.7,0,1,0s0.5-0.2,0.5-0.5C13.2,19.5,13,19.3,12.7,19.3z
			 M3.7,15.6c-0.5,0-0.9-0.4-0.9-0.9s0.4-0.9,0.9-0.9s0.9,0.4,0.9,0.9C4.7,15.2,4.2,15.6,3.7,15.6z"/>
	</g>
</g>
</svg>
