<?xml version="1.0" encoding="utf-8"?>
<!-- Generator: Adobe Illustrator 24.1.3, SVG Export Plug-In . SVG Version: 6.00 Build 0)  -->
<svg version="1.1" id="Layer_1" xmlns="http://www.w3.org/2000/svg" xmlns:xlink="http://www.w3.org/1999/xlink" x="0px" y="0px"
	 viewBox="0 0 42 35" style="enable-background:new 0 0 42 35;" xml:space="preserve">
<style type="text/css">
	.st0{fill:#D4D4D4;}
</style>
<g>
	<g>
		<path class="st0" d="M33,32.1h-7.3V28c0-1.7-0.8-4.9-3.9-4.9h-5.4c-0.5,0-0.9,0.4-0.9,0.9s0.4,0.9,0.9,0.9h5.4
			c2.1,0,2.1,3,2.1,3.1v5.9h9c0.5,0,0.8-0.4,0.8-0.8S33.5,32.1,33,32.1z"/>
		<path class="st0" d="M38.1,4.5c-0.8-0.7-3.8-2.9-9.9-1c-1.8,0.6-2.9,1.2-3.9,1.8c-1.6,1-2.9,1.7-7.1,1.7c-2.3,0-4.9-1.4-6.2-2.3
			c1.2-0.8,3.6-1.9,6.3-1.9c0,0,0,0,0.1,0c4,0,5.4,1.2,5.4,1.2c0.2,0.3,0.8,0.3,1.1,0s0.3-0.9-0.1-1.2c-0.2-0.2-1.9-1.6-6.5-1.6
			h-0.1C12.6,1.2,9,4,8.9,4.1L8.1,4.8l0.8,0.7c0.2,0.1,4.4,3.4,8.3,3.3c4.6,0.1,6.2-0.8,8-1.9c1-0.6,1.9-1.2,3.6-1.7
			c5.3-1.7,7.8,0.2,8.2,0.6c2,1.8,2.5,3.4,1.6,4.7c-1.6,2.2-7,5-7.1,5.1L31,15.8v0.6c0,0,0.3,3.3,0,5.8c-0.3,2.4-2.4,5-2.5,5
			c-0.3,0.4-0.3,0.9,0.1,1.2c0.2,0.1,0.4,0.2,0.5,0.2c0.2,0,0.5-0.1,0.6-0.3c0.1-0.1,2.5-3,2.8-5.9c0.2-2.1,0.1-4.5,0-5.6
			c1.4-0.8,5.6-3.2,7.2-5.3C40.8,10.3,41.8,7.8,38.1,4.5z"/>
		<circle class="st0" cx="34.1" cy="8.1" r="0.9"/>
		<path class="st0" d="M20.5,30.3c-0.6,0-1.2,0-1.8,0c-2.2,0.1-3.5,0.1-5.5-0.6c-1.2-0.5-2.2-1-2.9-2c-2-2.5-1-6.6-0.3-7.5l0.1-0.1
			c0.1-0.1,1.9-3.2,6.9-3.6c1.8-0.1,3.9-0.4,5.6-1.4c2.2-1.2,3.6-3.7,4.1-7.1V7.9c-0.2,0.1-0.4,0.2-0.6,0.3
			c-0.4,0.3-0.9,0.5-1.4,0.8c-0.4,1.8-1.3,3.7-3,4.6c-1.5,0.8-3.3,1-4.9,1.1c-5.6,0.4-7.9,3.8-8.2,4.4C8.3,19.5,8,20.2,7.8,21
			c-0.4-1.3-1.7-2.3-3.2-2.3c-1.8,0-3.4,1.5-3.4,3.4s1.5,3.4,3.4,3.4c1.2,0,2.2-0.6,2.8-1.5c0,1.6,0.4,3.3,1.5,4.7s2.4,2,3.7,2.5
			c1.7,0.7,2.5,0.8,4.3,0.8c0.6,0,1.2,0,1.9,0c0.6,0,1.2,0,1.7,0s0.9-0.4,0.9-0.9S20.9,30.3,20.5,30.3z M4.6,23.9
			c-0.9,0-1.7-0.7-1.7-1.7c0-0.9,0.7-1.7,1.7-1.7s1.7,0.7,1.7,1.7C6.3,23.2,5.5,23.9,4.6,23.9z"/>
	</g>
</g>
</svg>
