<svg width="20" height="17" viewBox="0 0 20 17" fill="none" xmlns="http://www.w3.org/2000/svg">
<path d="M15.7652 15.6476H12.2199V13.6383C12.2199 12.8261 11.8302 11.29 10.3556 11.29H7.75257C7.5253 11.29 7.34082 11.4741 7.34082 11.7013C7.34082 11.9286 7.5253 12.1131 7.75257 12.1131H10.3556C11.3769 12.1131 11.3964 13.5768 11.3964 13.6383V16.4707H15.7652C15.9925 16.4707 16.177 16.2866 16.177 16.0594C16.177 15.8321 15.9925 15.6476 15.7652 15.6476Z" fill="#888888"/>
<path d="M18.2257 2.28311C17.8426 1.93949 16.3663 0.889124 13.4529 1.81069C12.5687 2.09032 12.0273 2.41108 11.5495 2.69445C10.7572 3.16395 10.1335 3.53333 8.09841 3.50715C6.98156 3.52045 5.73965 2.83571 5.07693 2.40734C5.67815 2.04087 6.80414 1.4866 8.11627 1.4866C8.12749 1.4866 8.13871 1.4866 8.15034 1.4866C10.0699 1.50032 10.7522 2.04628 10.753 2.04628C10.9229 2.19835 11.183 2.18339 11.3343 2.01387C11.4859 1.84435 11.471 1.58424 11.3015 1.43259C11.2154 1.35572 10.3944 0.679714 8.15616 0.663509H8.11586C5.86596 0.663509 4.16368 2.02675 4.0918 2.08492L3.69043 2.41108L4.09886 2.72893C4.18445 2.79583 6.22204 4.3772 8.1009 4.33025C10.3541 4.3585 11.1012 3.91725 11.9692 3.40245C12.4299 3.12947 12.9069 2.84693 13.7013 2.59556C16.2625 1.78535 17.4612 2.70359 17.6755 2.89555C18.6524 3.77224 18.9096 4.53218 18.4409 5.15417C17.6564 6.19582 15.0338 7.58939 15.0077 7.60351L14.7663 7.73107L14.7899 8.0028C14.7912 8.01859 14.9237 9.58625 14.7904 10.8236C14.667 11.9716 13.6145 13.2202 13.6041 13.2326C13.457 13.4055 13.4774 13.6652 13.6502 13.8127C13.7279 13.8787 13.8227 13.9111 13.917 13.9111C14.0333 13.9111 14.1488 13.8621 14.2303 13.767C14.2801 13.7084 15.4581 12.3152 15.6093 10.9117C15.7177 9.89912 15.6633 8.72327 15.6297 8.20224C16.3277 7.81583 18.3474 6.64663 19.0982 5.64944C19.532 5.07398 19.9953 3.87154 18.2257 2.28311Z" fill="#888888"/>
<path d="M16.6878 3.99986C16.6878 3.76665 16.499 3.57785 16.2658 3.57785C16.033 3.57785 15.8438 3.76665 15.8438 3.99986C15.8438 4.23307 16.033 4.42188 16.2658 4.42188C16.499 4.42188 16.6878 4.23307 16.6878 3.99986Z" fill="#888888"/>
<path d="M2.00582 11.6702C1.56329 11.6702 1.20303 11.31 1.20303 10.8674C1.20303 10.4245 1.56329 10.0646 2.00582 10.0646C2.44835 10.0646 2.80861 10.4245 2.80861 10.8674C2.80861 11.31 2.44835 11.6702 2.00582 11.6702ZM9.67513 14.775C9.3934 14.775 9.10669 14.7825 8.81707 14.79C7.74419 14.8186 7.12049 14.8477 6.17476 14.4729C5.59178 14.2419 5.12598 13.9905 4.74703 13.5151C3.788 12.313 4.27873 10.3401 4.61614 9.90508L4.65063 9.8523C4.68636 9.78873 5.5548 8.2916 7.98021 8.13038C8.8553 8.0722 9.8646 7.94879 10.7168 7.47343C11.7665 6.88796 12.4479 5.70663 12.6881 4.057C12.691 4.0354 12.6848 4.01545 12.6848 3.99426C12.5942 4.0462 12.5048 4.09856 12.4151 4.15174C12.2048 4.2764 11.9925 4.40147 11.7594 4.52031C11.5587 5.36756 11.1511 6.28836 10.3159 6.75458C9.60615 7.15016 8.70945 7.25695 7.92578 7.30889C5.19288 7.49047 4.09798 9.1696 3.94673 9.42556C3.80088 9.62418 3.65379 9.95535 3.54243 10.3592C3.3276 9.71227 2.72385 9.24107 2.00582 9.24107C1.10913 9.24107 0.379883 9.97073 0.379883 10.8674C0.379883 11.7641 1.10913 12.4934 2.00582 12.4934C2.57177 12.4934 3.06998 12.2021 3.36126 11.762C3.37165 12.5362 3.5686 13.3585 4.10338 14.0287C4.62486 14.6823 5.26103 14.9965 5.87143 15.2383C6.69043 15.5628 7.07562 15.6289 7.94198 15.6289C8.24199 15.6289 8.54158 15.621 8.83868 15.6131C9.12082 15.6056 9.40088 15.5982 9.67513 15.5982C9.90242 15.5982 10.0869 15.4141 10.0869 15.1868C10.0869 14.9595 9.90242 14.775 9.67513 14.775Z" fill="#888888"/>
</svg>
