<svg width="131" height="25" viewBox="0 0 131 25" fill="none" xmlns="http://www.w3.org/2000/svg">
<path d="M1.10001 1.60059H5.80001C8.50001 1.60059 10.1 3.20059 10.1 6.00059C10.1 8.40059 8.90001 9.40059 7.90001 9.80059C9.30001 10.3006 10.7 11.5006 10.7 14.3006C10.7 17.5006 8.80001 19.6006 5.60001 19.6006H1.10001V1.60059ZM5.10001 9.00059C7.40001 9.00059 8.20001 8.00059 8.20001 6.10059C8.20001 4.30059 7.30001 3.20059 5.40001 3.20059H3.10001V9.00059H5.10001ZM3.10001 17.9006H5.50001C7.60001 17.9006 8.80001 16.6006 8.80001 14.3006C8.80001 11.9006 7.60001 10.7006 5.20001 10.7006H3.20001V17.9006H3.10001Z" fill="#808080"/>
<path d="M21.9 15.8006C21.9 17.5006 21.9 18.8006 21.9 19.5006H20C19.9 19.1006 19.9 18.6006 19.9 17.7006C19.4 19.0006 18.3 19.7006 16.7 19.7006C15.1 19.7006 13.4 19.1006 13.4 15.7006V6.10059H15.3V15.2006C15.3 16.9006 15.8 18.0006 17.3 18.0006C18.8 18.0006 19.8 17.1006 19.8 14.2006V6.10059H21.8L21.9 15.8006Z" fill="#808080"/>
<path d="M25.4 10.2004C25.4 7.50039 25.4 6.70039 25.4 6.10039H27.3C27.3 6.40039 27.4 6.90039 27.4 7.90039C27.9 6.90039 28.8 5.90039 30.6 5.90039C32.5 5.90039 34 7.00039 34 10.0004V19.5004H32V10.4004C32 8.80039 31.5 7.70039 30 7.70039C28.2 7.70039 27.4 8.90039 27.4 11.6004V19.5004H25.4V10.2004Z" fill="#808080"/>
<path d="M37.6 10.2004C37.6 7.50039 37.6 6.70039 37.6 6.10039H39.5C39.5 6.40039 39.6 6.90039 39.6 7.90039C40.1 6.90039 41 5.90039 42.8 5.90039C44.7 5.90039 46.2 7.00039 46.2 10.0004V19.5004H44.2V10.4004C44.2 8.80039 43.7 7.70039 42.2 7.70039C40.4 7.70039 39.6 8.90039 39.6 11.6004V19.5004H37.6V10.2004Z" fill="#808080"/>
<path d="M50.3 6.10059C51.7 11.7006 52.8 15.7006 53 17.1006C53.3 15.6006 54.5 11.0006 55.7 6.10059H57.7L53.8 20.1006C52.7 24.0006 51.7 24.5006 49.8 24.5006C49.5 24.5006 49.1 24.5006 48.8 24.4006V22.7006C49 22.7006 49.4 22.8006 49.7 22.8006C51.1 22.8006 51.5 21.8006 52 19.7006L48.2 6.10059H50.3Z" fill="#808080"/>
<path d="M76.6 11.8006C76.6 8.50059 76.7 5.10059 76.7 3.20059H76.6C75.9 6.30059 74.3 13.7006 72.9 19.4006H71C70 14.5006 68.3 6.50059 67.6 3.20059H67.5C67.6 5.30059 67.7 9.20059 67.7 12.3006V19.4006H65.9V1.60059H68.8C70.2 7.20059 71.6 14.1006 72.1 16.4006C72.4 14.5006 74.2 7.00059 75.6 1.60059H78.5V19.5006H76.6V11.8006Z" fill="#808080"/>
<path d="M90.7 12.6004C90.7 17.3004 89.1 19.7004 86.1 19.7004C83 19.7004 81.5 17.4004 81.5 12.7004C81.5 8.10039 83.3 5.90039 86.2 5.90039C89.1 5.90039 90.7 8.10039 90.7 12.6004ZM83.5 12.7004C83.5 16.3004 84.4 18.1004 86.2 18.1004C88 18.1004 88.8 16.3004 88.8 12.7004C88.8 9.30039 88 7.60039 86.2 7.60039C84.5 7.60039 83.5 9.10039 83.5 12.7004Z" fill="#808080"/>
<path d="M102.2 0.700195V16.0002C102.2 17.3002 102.2 18.6002 102.2 19.4002H100.3C100.3 19.1002 100.2 18.2002 100.2 17.6002C99.8 18.8002 98.9 19.6002 97.1 19.6002C94.3 19.6002 93.1 17.2002 93.1 12.5002C93.1 8.2002 94.7 5.7002 97.5 5.7002C99.2 5.7002 99.9 6.4002 100.2 7.1002V0.700195H102.2ZM95.1 12.7002C95.1 16.6002 96 18.0002 97.6 18.0002C99.7 18.0002 100.2 16.2002 100.2 12.6002C100.2 8.7002 99.7 7.6002 97.7 7.6002C96.2 7.6002 95.1 9.0002 95.1 12.7002Z" fill="#808080"/>
<path d="M107.1 13.1004C107.1 15.7004 107.5 18.0004 109.7 18.0004C111.8 18.0004 112.1 16.0004 112.1 15.6004H114C114 15.9004 113.6 19.7004 109.7 19.7004C105.8 19.7004 105.2 16.1004 105.2 12.8004C105.2 8.60039 106.6 5.90039 109.8 5.90039C113.3 5.90039 114.1 8.80039 114.1 12.1004C114.1 12.4004 114.1 12.8004 114.1 13.1004H107.1ZM112.2 11.6004C112.2 9.30039 111.7 7.50039 109.8 7.50039C107.4 7.50039 107.2 10.7004 107.2 11.6004H112.2Z" fill="#808080"/>
<path d="M117.1 19.5002V0.700195H119V19.5002H117.1Z" fill="#808080"/>
<path d="M123.7 15.6004C123.8 17.0004 124.5 18.1004 126.1 18.1004C127.6 18.1004 128.3 17.2004 128.3 16.0004C128.3 14.6004 127.6 14.0004 125.8 13.3004C123 12.2004 122.2 11.2004 122.2 9.40039C122.2 7.60039 123.3 5.90039 126 5.90039C129 5.90039 129.8 7.90039 129.9 9.70039H128C128 9.10039 127.8 7.50039 126 7.50039C124.7 7.50039 124.2 8.30039 124.2 9.30039C124.2 10.4004 124.7 10.9004 126.5 11.6004C129.1 12.6004 130.2 13.5004 130.2 15.8004C130.2 18.2004 128.7 19.7004 126 19.7004C123.2 19.7004 121.9 18.0004 121.8 15.6004H123.7Z" fill="#808080"/>
</svg>
