<svg width="22" height="21" viewBox="0 0 22 21" fill="none" xmlns="http://www.w3.org/2000/svg">
<path d="M2.58887 10.5657C2.58887 7.31266 2.58887 5.68615 3.59945 4.67556C4.61004 3.66498 6.23655 3.66498 9.48957 3.66498H12.9399C16.1929 3.66498 17.8195 3.66498 18.83 4.67556C19.8406 5.68615 19.8406 7.31266 19.8406 10.5657C19.8406 13.8187 19.8406 15.4452 18.83 16.4558C17.8195 17.4664 16.1929 17.4664 12.9399 17.4664H9.48957C6.23655 17.4664 4.61004 17.4664 3.59945 16.4558C2.58887 15.4452 2.58887 13.8187 2.58887 10.5657Z" stroke="#4D4D4D" stroke-width="1.41029"/>
<path d="M6.03906 7.11533L7.9013 8.66719C9.48556 9.98741 10.2777 10.6475 11.2146 10.6475C12.1515 10.6475 12.9436 9.98741 14.5279 8.66719L16.3901 7.11533" stroke="#4D4D4D" stroke-width="1.41029" stroke-linecap="round"/>
</svg>
