<svg width="24" height="22" viewBox="0 0 24 22" fill="none" xmlns="http://www.w3.org/2000/svg">
<path d="M19.0283 2.05518L17.8223 4.08936C20.5858 5.50611 22.7686 7.89787 23.917 10.812C22.0428 15.5678 17.4167 18.937 12 18.937C11.04 18.937 10.1054 18.829 9.20605 18.6284L7.66504 21.231L5.08398 19.7017L6.32324 17.6099C3.49043 16.2033 1.25159 13.7774 0.0830078 10.812C1.95717 6.05618 6.58333 2.68701 12 2.68701C13.0197 2.68701 14.0114 2.80618 14.9619 3.03174L16.4473 0.525879L19.0283 2.05518ZM15.709 7.65479C16.435 8.50631 16.875 9.60875 16.875 10.812C16.875 13.4987 14.6867 15.687 12 15.687C11.6608 15.687 11.3297 15.6509 11.0098 15.5845L10.3799 16.6479C10.9095 16.7279 11.4505 16.77 12 16.77C16.1166 16.77 19.7672 14.4628 21.5547 10.812C20.4989 8.65571 18.7895 6.96813 16.7207 5.94775L15.709 7.65479ZM12 4.854C7.89421 4.854 4.23283 7.16125 2.44531 10.812C3.52666 13.0205 5.29005 14.7367 7.42578 15.7485L8.40332 14.0981C7.60994 13.2306 7.125 12.0766 7.125 10.812C7.125 8.12535 9.31333 5.93701 12 5.93701C12.3986 5.93701 12.7861 5.98584 13.1572 6.07666L13.793 5.00342C13.2082 4.90503 12.609 4.854 12 4.854ZM12.2412 13.5073C13.6233 13.3851 14.708 12.2257 14.708 10.812C14.708 10.4264 14.6259 10.0602 14.4805 9.72803L12.2412 13.5073ZM11.9551 8.10596C10.4808 8.12999 9.29199 9.33202 9.29199 10.812C9.29199 11.2674 9.40565 11.696 9.60449 12.0728L11.9551 8.10596Z" fill="#818181"/>
</svg>
