<svg width="25" height="17" viewBox="0 0 25 17" fill="none" xmlns="http://www.w3.org/2000/svg">
<path d="M12.151 2.85368C16.2569 2.85368 19.9185 5.16118 21.706 8.81201C19.9185 12.4628 16.2677 14.7703 12.151 14.7703C8.03437 14.7703 4.38354 12.4628 2.59604 8.81201C4.38354 5.16118 8.04521 2.85368 12.151 2.85368ZM12.151 0.687012C6.73437 0.687012 2.10854 4.05618 0.234375 8.81201C2.10854 13.5678 6.73437 16.937 12.151 16.937C17.5677 16.937 22.1935 13.5678 24.0677 8.81201C22.1935 4.05618 17.5677 0.687012 12.151 0.687012ZM12.151 6.10368C13.646 6.10368 14.8594 7.31701 14.8594 8.81201C14.8594 10.307 13.646 11.5203 12.151 11.5203C10.656 11.5203 9.44271 10.307 9.44271 8.81201C9.44271 7.31701 10.656 6.10368 12.151 6.10368ZM12.151 3.93701C9.46437 3.93701 7.27604 6.12535 7.27604 8.81201C7.27604 11.4987 9.46437 13.687 12.151 13.687C14.8377 13.687 17.026 11.4987 17.026 8.81201C17.026 6.12535 14.8377 3.93701 12.151 3.93701Z" fill="#818181"/>
</svg>
