<svg xmlns="http://www.w3.org/2000/svg" xmlns:xlink="http://www.w3.org/1999/xlink" version="1.1" id="Layer_1" x="0px" y="0px" viewBox="0 0 156 70" style="enable-background:new 0 0 156 70;" xml:space="preserve">
<style type="text/css">
	.st0{fill:#727272;}
</style>
<g>
	<g>
		<g>
			<g>
				<path class="st0" d="M0.8,41.5h5.6c3.2,0,5.2,1.9,5.2,5.2c0,2.9-1.4,4.1-2.6,4.6c1.6,0.6,3.3,2.1,3.3,5.4c0,3.9-2.3,6.3-6,6.3      H0.8V41.5z M5.6,50.4c2.7,0,3.7-1.2,3.7-3.5c0-2.2-1.1-3.5-3.4-3.5H3.1v7L5.6,50.4L5.6,50.4z M3.1,60.9H6c2.5,0,3.9-1.5,3.9-4.3      c0-2.9-1.5-4.3-4.3-4.3H3.1V60.9z" fill="#000000"/>
				<path class="st0" d="M25.6,58.5c0,2,0,3.6,0,4.4h-2.2c-0.1-0.5-0.1-1.1-0.1-2.1c-0.6,1.6-1.9,2.4-3.8,2.4c-1.9,0-4-0.8-4-4.8      V46.9h2.3v11c0,2,0.6,3.3,2.4,3.3c1.8,0,3-1.1,3-4.5v-9.7h2.3V58.5z" fill="#000000"/>
				<path class="st0" d="M29.8,51.8c0-3.3,0-4.2,0-5H32c0,0.4,0.1,1,0.1,2.1c0.5-1.3,1.6-2.4,3.8-2.4c2.3,0,4.1,1.3,4.1,4.9v11.4      h-2.3V51.9c0-2-0.6-3.3-2.5-3.3c-2.2,0-3.1,1.4-3.1,4.7v9.5h-2.3C29.8,62.9,29.8,51.8,29.8,51.8z" fill="#000000"/>
				<path class="st0" d="M44.4,51.8c0-3.3,0-4.2,0-5h2.2c0,0.4,0.1,1,0.1,2.1c0.5-1.3,1.6-2.4,3.8-2.4c2.3,0,4.1,1.3,4.1,4.9v11.4      h-2.3V51.9c0-2-0.6-3.3-2.5-3.3c-2.2,0-3.1,1.4-3.1,4.7v9.5h-2.3L44.4,51.8L44.4,51.8z" fill="#000000"/>
				<path class="st0" d="M59.6,46.9c1.7,6.7,3,11.5,3.3,13.2h0c0.3-1.8,1.8-7.3,3.3-13.2h2.4l-4.7,16.8c-1.3,4.7-2.5,5.3-4.8,5.3      c-0.3,0-0.8,0-1.1-0.1v-2.1c0.2,0.1,0.7,0.1,1.1,0.1c1.7,0,2.1-1.1,2.8-3.7l-4.7-16.3C57.1,46.9,59.6,46.9,59.6,46.9z" fill="#000000"/>
				<path class="st0" d="M91.1,53.7c0-4,0.1-8,0.1-10.3h-0.1c-0.8,3.7-2.7,12.6-4.4,19.4h-2.3c-1.3-5.9-3.3-15.5-4.1-19.4h-0.1      c0.1,2.5,0.2,7.2,0.2,10.9v8.5h-2.2V41.5h3.5c1.7,6.7,3.4,14.9,3.9,17.7h0c0.4-2.3,2.5-11.2,4.2-17.7h3.5v21.4h-2.3L91.1,53.7      L91.1,53.7z" fill="#000000"/>
				<path class="st0" d="M108.1,54.7c0,5.6-1.9,8.5-5.5,8.5c-3.7,0-5.5-2.8-5.5-8.4c0-5.5,2.2-8.1,5.6-8.1      C106.1,46.6,108.1,49.3,108.1,54.7z M99.4,54.8c0,4.3,1.1,6.4,3.2,6.4c2.1,0,3.1-2.1,3.1-6.4c0-4.1-1-6.1-3.1-6.1      C100.5,48.6,99.4,50.4,99.4,54.8z" fill="#000000"/>
				<path class="st0" d="M121.7,40.4v18.4c0,1.5,0,3.2,0,4.1h-2.2c0-0.4-0.1-1.5-0.1-2.2c-0.5,1.4-1.5,2.4-3.8,2.4      c-3.3,0-4.8-2.8-4.8-8.5c0-5.1,1.9-8.1,5.3-8.1c2.1,0,2.9,0.9,3.2,1.7v-7.9C119.4,40.4,121.7,40.4,121.7,40.4z M113.3,54.7      c0,4.6,1.1,6.4,3,6.4c2.5,0,3.2-2.1,3.2-6.5c0-4.7-0.7-6-3-6C114.6,48.7,113.3,50.3,113.3,54.7z" fill="#000000"/>
				<path class="st0" d="M127.7,55.3c0,3.1,0.5,5.9,3.1,5.9c2.5,0,2.8-2.4,2.9-2.9h2.3c0,0.4-0.5,4.8-5.2,4.8      c-4.7,0-5.4-4.3-5.4-8.3c0-5.1,1.7-8.3,5.5-8.3c4.2,0,5.2,3.5,5.2,7.5c0,0.3,0,0.8,0,1.2H127.7z M133.7,53.5      c0-2.8-0.6-4.9-2.9-4.9c-2.9,0-3.1,3.8-3.1,4.9H133.7z" fill="#000000"/>
				<path class="st0" d="M139.6,62.9V40.4h2.3v22.5C141.9,62.9,139.6,62.9,139.6,62.9z" fill="#000000"/>
				<path class="st0" d="M147.4,58.3c0.1,1.7,1,3,2.8,3c1.8,0,2.6-1.1,2.6-2.5c0-1.7-0.9-2.4-2.9-3.2c-3.3-1.3-4.3-2.5-4.3-4.7      c0-2.1,1.3-4.2,4.6-4.2c3.6,0,4.6,2.4,4.6,4.5h-2.3c0-0.8-0.2-2.7-2.4-2.7c-1.5,0-2.2,0.9-2.2,2.2c0,1.3,0.6,1.9,2.8,2.8      c3.1,1.2,4.5,2.3,4.5,5.1c0,2.9-1.8,4.6-5,4.6c-3.3,0-4.9-2-5-4.9C145.2,58.3,147.4,58.3,147.4,58.3z" fill="#000000"/>
			</g>
		</g>
	</g>
	<g>
		<path class="st0" d="M88.4,27.7h-6.3v-3.6c0-1.5-0.7-4.2-3.3-4.2h-4.6c-0.4,0-0.7,0.3-0.7,0.7s0.3,0.7,0.7,0.7h4.6    c1.8,0,1.8,2.6,1.8,2.7v5h7.8c0.4,0,0.7-0.3,0.7-0.7C89.1,28,88.8,27.7,88.4,27.7z" fill="#000000"/>
		<path class="st0" d="M92.8,3.9c-0.7-0.6-3.3-2.5-8.5-0.8c-1.6,0.5-2.5,1.1-3.4,1.6c-1.4,0.8-2.5,1.5-6.2,1.5c-2,0-4.2-1.2-5.4-2    c1.1-0.7,3.1-1.6,5.4-1.6c0,0,0,0,0.1,0c3.4,0,4.6,1,4.6,1c0.3,0.3,0.8,0.2,1-0.1c0.3-0.3,0.2-0.8-0.1-1C80.3,2.2,78.8,1,74.8,1    c0,0-0.1,0-0.1,0c-4,0-7,2.4-7.2,2.5l-0.7,0.6l0.7,0.6c0.2,0.1,3.8,2.9,7.1,2.8c4,0.1,5.3-0.7,6.9-1.7c0.8-0.5,1.7-1,3.1-1.4    C89.3,3,91.4,4.6,91.8,5c1.7,1.6,2.2,2.9,1.4,4c-1.4,1.9-6.1,4.3-6.1,4.4l-0.4,0.2l0,0.5c0,0,0.2,2.8,0,5c-0.2,2-2.1,4.3-2.1,4.3    c-0.3,0.3-0.2,0.8,0.1,1c0.1,0.1,0.3,0.2,0.5,0.2c0.2,0,0.4-0.1,0.6-0.3c0.1-0.1,2.2-2.6,2.5-5.1c0.2-1.8,0.1-3.9,0-4.8    c1.2-0.7,4.8-2.8,6.2-4.6C95.1,8.9,95.9,6.7,92.8,3.9z" fill="#000000"/>
		<circle class="st0" cx="89.3" cy="6.9" r="0.8" fill="#000000"/>
		<path class="st0" d="M77.5,26.1c-0.5,0-1,0-1.5,0c-1.9,0-3,0.1-4.7-0.6c-1-0.4-1.9-0.9-2.5-1.7c-1.7-2.1-0.8-5.7-0.2-6.4l0.1-0.1    c0.1-0.1,1.6-2.8,5.9-3.1c1.6-0.1,3.4-0.3,4.9-1.2c1.9-1,3.1-3.1,3.5-6.1c0,0,0-0.1,0-0.1c-0.2,0.1-0.3,0.2-0.5,0.3    c-0.4,0.2-0.8,0.4-1.2,0.7c-0.4,1.5-1.1,3.1-2.6,4c-1.3,0.7-2.9,0.9-4.3,1c-4.9,0.3-6.8,3.3-7.1,3.8c-0.3,0.4-0.5,0.9-0.7,1.7    c-0.4-1.1-1.5-2-2.7-2c-1.6,0-2.9,1.3-2.9,2.9s1.3,2.9,2.9,2.9c1,0,1.9-0.5,2.4-1.3c0,1.4,0.4,2.8,1.3,4c0.9,1.2,2.1,1.7,3.2,2.1    c1.5,0.6,2.2,0.7,3.7,0.7c0.5,0,1.1,0,1.6,0c0.5,0,1,0,1.5,0c0.4,0,0.7-0.3,0.7-0.7C78.3,26.5,77.9,26.1,77.5,26.1z M63.9,20.6    c-0.8,0-1.4-0.6-1.4-1.4s0.6-1.4,1.4-1.4c0.8,0,1.4,0.6,1.4,1.4C65.3,20,64.7,20.6,63.9,20.6z" fill="#000000"/>
	</g>
</g>
</svg>