<svg width="13" height="14" viewBox="0 0 13 14" fill="none" xmlns="http://www.w3.org/2000/svg">
<path d="M12.5893 10.4589C12.6102 10.8415 12.4154 11.2102 12.1441 11.5441C11.8519 11.9058 11.5041 12.2189 11.0937 12.4415C10.6554 12.678 10.1963 12.8867 9.70934 13.0119C9.47977 13.0676 9.25021 13.1441 9.02065 13.1789C8.56152 13.2415 8.10239 13.1998 7.65718 13.0884C6.8711 12.9006 6.15458 12.5598 5.45894 12.1563C4.71459 11.725 4.04677 11.2032 3.38591 10.6606C2.91983 10.2711 2.53026 9.81195 2.15461 9.33891C1.86244 8.97022 1.57027 8.60848 1.32679 8.20501C1.03462 7.72501 0.742451 7.23806 0.512888 6.72328C0.255499 6.11807 0.0607176 5.49894 0.00506586 4.84504C-0.0297165 4.41373 0.0398482 3.99635 0.158108 3.58592C0.276368 3.1407 0.443323 2.70244 0.652017 2.29201C0.923319 1.77028 1.25723 1.30419 1.73027 0.949414C2.0294 0.726808 2.37026 0.573765 2.75287 0.566809C3.10765 0.559852 3.44852 0.64333 3.76851 0.796372C4.17199 0.991153 4.47112 1.30419 4.70764 1.67289C4.99981 2.13897 5.21546 2.64679 5.31981 3.1894C5.42415 3.75287 5.31981 4.26069 4.94416 4.69895C4.86068 4.8033 4.77024 4.87982 4.6659 4.94243C4.42242 5.10243 4.22764 5.29721 4.0746 5.54068C3.90764 5.80503 3.9146 6.09024 4.01895 6.37546C4.11634 6.6398 4.29025 6.8485 4.46416 7.06415C4.84677 7.51632 5.26415 7.93371 5.6885 8.34414C5.97371 8.61544 6.25893 8.87283 6.5998 9.07457C6.85023 9.22065 7.11457 9.28326 7.39979 9.22065C7.58761 9.17891 7.7337 9.07457 7.87283 8.94935C8.06065 8.7824 8.19978 8.55979 8.35283 8.36501C8.5963 8.06588 8.92325 7.91284 9.2989 7.85719C9.82064 7.77371 10.3145 7.91284 10.7876 8.12153C11.1076 8.26066 11.4276 8.4137 11.7058 8.63631C12.2832 9.07457 12.5824 9.65891 12.5893 10.4589ZM0.777234 4.5946C0.763321 4.74765 0.812016 4.92851 0.825929 5.11634C0.839842 5.25547 0.881581 5.3946 0.916363 5.53373C1.08332 6.1459 1.34766 6.70937 1.67462 7.25893C2.00157 7.80849 2.36331 8.33023 2.75287 8.83805C3.19808 9.42239 3.71286 9.93021 4.29025 10.3824C4.91633 10.8763 5.56328 11.3354 6.26588 11.7111C6.76675 11.9824 7.28849 12.2119 7.85196 12.3371C8.26239 12.4276 8.67282 12.4624 9.08325 12.3789C9.54934 12.2815 9.99455 12.1354 10.4189 11.9198C10.8015 11.7319 11.1563 11.5024 11.4415 11.1893C11.6293 10.9806 11.8102 10.765 11.8171 10.4519C11.8311 9.97891 11.6641 9.58239 11.3024 9.29717C10.8432 8.94239 10.3285 8.68501 9.74412 8.61544C9.39629 8.5737 9.09717 8.65718 8.87456 8.96326C8.61717 9.31804 8.33891 9.645 7.92848 9.83978C7.67805 9.95804 7.4137 10.0346 7.1424 10.0206C6.78762 9.99978 6.45371 9.88847 6.14762 9.70065C5.8485 9.51978 5.58415 9.29022 5.32676 9.06065C4.91633 8.69196 4.53372 8.3024 4.17199 7.89197C3.90764 7.58588 3.63634 7.29371 3.4346 6.93198C3.26069 6.61893 3.14939 6.27807 3.17026 5.91633C3.19113 5.49894 3.372 5.13721 3.6433 4.81025C3.81721 4.60156 4.03286 4.44156 4.24851 4.28852C4.47112 4.12852 4.56155 3.91287 4.57546 3.64852C4.58938 3.29374 4.49894 2.97375 4.3459 2.65375C4.19286 2.31984 4.03982 1.97897 3.74764 1.72854C3.50417 1.51289 3.22591 1.39463 2.90591 1.35985C2.53026 1.32506 2.252 1.50593 2.00157 1.74245C1.61897 2.10419 1.34766 2.54245 1.14593 3.0294C1.04158 3.29374 0.958102 3.572 0.881581 3.8433C0.818972 4.07982 0.78419 4.31634 0.777234 4.5946Z" fill="#888888"/>
</svg>
