<svg width="16" height="19" viewBox="0 0 16 19" fill="none" xmlns="http://www.w3.org/2000/svg">
<path d="M2.333 18.1703V13.384C2.333 13.3068 2.333 11.2224 4.10859 11.2224H12.4461C14.1445 11.2224 14.2217 13.2296 14.2217 13.384V18.1703H15.6113V13.384C15.6113 11.9944 14.9165 9.83279 12.4461 9.83279H4.03139C1.56101 9.83279 0.866211 11.9944 0.866211 13.384V18.1703H2.333Z" fill="#4D4D4D"/>
<path d="M8.19992 8.36594C5.96114 8.36594 4.18555 6.59035 4.18555 4.35157C4.18555 2.11278 5.96114 0.337189 8.19992 0.337189C10.4387 0.337189 12.2143 2.11278 12.2143 4.35157C12.2143 6.59035 10.3615 8.36594 8.19992 8.36594ZM8.19992 1.64958C6.73313 1.64958 5.49794 2.88477 5.49794 4.35157C5.49794 5.81836 6.73313 7.05355 8.19992 7.05355C9.66672 7.05355 10.9019 5.81836 10.9019 4.35157C10.9019 2.88477 9.66672 1.64958 8.19992 1.64958Z" fill="#4D4D4D"/>
</svg>
