<svg width="30" height="30" viewBox="0 0 30 30" fill="none" xmlns="http://www.w3.org/2000/svg">
<path d="M14.916 27.5258C15.2122 27.5233 15.5084 27.5121 15.8047 27.501C16.4477 27.477 17.0761 27.3657 17.7037 27.2382C19.0556 26.965 20.3176 26.4582 21.5043 25.7621C23.0155 24.8759 24.2844 23.7167 25.3349 22.3176C26.3503 20.9632 27.0661 19.4623 27.4788 17.821C27.7939 16.5692 27.9454 15.2978 27.8846 14.0032C27.859 13.4612 27.8127 12.9236 27.7245 12.3893C27.4857 10.9355 26.9985 9.56387 26.2904 8.27531C25.0327 5.98501 23.2141 4.25893 20.9195 3.02859C19.5693 2.30425 18.1207 1.87188 16.6035 1.67924C15.8894 1.58933 15.172 1.54481 14.4493 1.57992C13.8843 1.60732 13.3217 1.65355 12.7644 1.7443C11.5725 1.93952 10.4295 2.29826 9.3396 2.81882C7.51164 3.69128 5.96365 4.91991 4.70763 6.5107C3.61342 7.89602 2.85655 9.45171 2.3728 11.1478C2.06457 12.2309 1.9507 13.3371 1.92416 14.4536C1.90875 15.088 1.97895 15.7224 2.05515 16.3534C2.18273 17.4074 2.46784 18.4186 2.86425 19.4006C3.10484 19.9957 3.37968 20.5736 3.69904 21.1301C3.83431 21.3656 3.87284 21.607 3.78894 21.875C3.63996 22.3519 3.50896 22.8331 3.37026 23.3125C3.08943 24.2843 2.80774 25.2569 2.52948 26.2296C2.50123 26.328 2.47212 26.4282 2.49609 26.5352C2.56972 26.8674 2.83685 27.0344 3.21101 26.9419C3.6588 26.8306 4.09973 26.6945 4.54238 26.5652C5.52785 26.2784 6.51418 25.9975 7.49537 25.6979C7.8447 25.5909 8.14865 25.6397 8.45174 25.8263C8.67178 25.9616 8.90123 26.084 9.13326 26.1979C10.9569 27.0926 12.8842 27.5361 14.916 27.5258ZM14.9297 0.0721703C16.6771 0.0627537 18.363 0.395809 19.9974 1.00113C22.0942 1.7777 23.8974 2.99605 25.4265 4.61938C27.3016 6.61173 28.5122 8.95341 29.0842 11.6307C29.3299 12.784 29.4335 13.9484 29.3864 15.1231C29.3393 16.2935 29.1415 17.4425 28.817 18.5693C28.5987 19.3253 28.3521 20.0736 27.9942 20.7757C27.5165 21.7115 26.9814 22.6122 26.3358 23.4478C25.1654 24.9607 23.7373 26.1688 22.09 27.1226C20.6387 27.9625 19.0822 28.5233 17.4272 28.8118C16.3843 28.9942 15.3363 29.0747 14.279 29.031C13.6094 29.0036 12.9476 28.9094 12.29 28.7921C10.8285 28.531 9.44663 28.0293 8.1358 27.3375C7.89521 27.2099 7.68545 27.1791 7.41917 27.2604C6.14003 27.6483 4.85318 28.0122 3.57146 28.3897C2.43102 28.7254 1.19811 27.9137 1.02173 26.7133C0.983206 26.4505 1.00718 26.1979 1.07139 25.9453C1.33938 24.8862 1.67415 23.8468 1.97039 22.7954C2.05944 22.4778 2.1579 22.1635 2.25636 21.8493C2.29061 21.7397 2.28376 21.6455 2.2281 21.5402C1.69213 20.5256 1.25548 19.47 0.954097 18.3612C0.731488 17.547 0.579942 16.719 0.494324 15.88C0.408705 15.0495 0.410417 14.219 0.478912 13.385C0.573093 12.2386 0.79142 11.1196 1.14931 10.0296C1.61764 8.6058 2.31972 7.29925 3.17933 6.07234C4.14939 4.68959 5.35747 3.55086 6.74278 2.60135C8.24454 1.57136 9.89184 0.855583 11.6693 0.442043C12.3363 0.287073 13.0075 0.186045 13.689 0.125256C14.1026 0.0892944 14.5153 0.0704594 14.9297 0.0721703Z" fill="#818181"/>
<path d="M18.5194 20.871C18.6572 20.8941 18.778 20.8624 18.8995 20.853C19.9424 20.7777 20.9047 19.9977 21.1993 18.9942C21.266 18.7673 21.2258 18.5764 21.046 18.4197C20.9895 18.3701 20.9347 18.3178 20.8748 18.2725C20.409 17.9206 19.9424 17.5695 19.4758 17.2185C19.254 17.0515 19.0511 16.8589 18.8182 16.7065C18.6238 16.5798 18.4338 16.5901 18.26 16.7399C18.1743 16.8127 18.0939 16.8931 18.0142 16.9736C17.7026 17.287 17.4004 17.6115 17.069 17.9052C16.8892 18.0644 16.6803 18.1312 16.4406 18.0867C15.5005 17.912 14.6374 17.5575 13.8703 16.9805C12.5886 16.0173 11.7504 14.7724 11.4122 13.1936C11.3317 12.8151 11.4087 12.5214 11.6793 12.2577C12.0132 11.9324 12.342 11.6019 12.6682 11.268C12.8994 11.0308 12.9062 10.8604 12.7076 10.5933C12.3608 10.1293 12.0166 9.66435 11.6639 9.20458C11.4601 8.94001 11.2683 8.66603 11.0466 8.41431C10.8856 8.2328 10.6955 8.19513 10.4712 8.25849C10.2794 8.31243 10.1031 8.4049 9.93353 8.50507C9.08419 9.00765 8.63042 9.76281 8.59531 10.7406C8.55593 11.81 8.69891 12.8631 9.02769 13.8854C9.76914 16.1885 11.2118 17.9582 13.1973 19.2973C14.8044 20.3813 16.6007 20.871 18.5194 20.871ZM18.2985 22.371C17.2437 22.3539 16.2137 22.193 15.2059 21.8685C14.116 21.5183 13.0946 21.0345 12.1562 20.3838C11.3805 19.8461 10.6673 19.2348 10.0457 18.5173C9.49773 17.8846 9.00029 17.2194 8.57476 16.4993C7.84529 15.2613 7.41206 13.923 7.20829 12.5043C7.12866 11.9478 7.07558 11.3921 7.09955 10.8305C7.16976 9.20458 7.9018 7.97595 9.32393 7.1737C9.64757 6.99047 9.98319 6.82523 10.3599 6.77471C11.0902 6.67625 11.7101 6.904 12.1716 7.47079C12.7718 8.20797 13.3531 8.96313 13.9148 9.73028C14.5664 10.619 14.4602 11.554 13.6511 12.3793C13.443 12.5917 13.2341 12.8023 13.0184 13.0052C12.9242 13.0934 12.9156 13.1764 12.9507 13.2937C13.1331 13.9076 13.4293 14.4599 13.8403 14.9496C14.4739 15.7039 15.247 16.2493 16.2008 16.5267C16.3087 16.5575 16.3798 16.5353 16.4525 16.4616C16.6983 16.2142 16.9449 15.9676 17.1932 15.7236C17.6075 15.3152 18.1024 15.1097 18.6872 15.1431C19.0733 15.1654 19.4261 15.2964 19.7318 15.5301C20.4912 16.1106 21.2523 16.6902 21.9955 17.2904C22.6882 17.8512 22.9014 18.7502 22.57 19.5773C22.0751 20.8094 21.2344 21.6912 19.9681 22.139C19.4278 22.3299 18.8687 22.3873 18.2985 22.371Z" fill="#818181"/>
</svg>
