<?xml version="1.0" encoding="utf-8"?>
<!-- Generator: Adobe Illustrator 24.1.3, SVG Export Plug-In . SVG Version: 6.00 Build 0)  -->
<svg version="1.1" id="Layer_1" xmlns="http://www.w3.org/2000/svg" xmlns:xlink="http://www.w3.org/1999/xlink" x="0px" y="0px"
	 viewBox="0 0 20 20" style="enable-background:new 0 0 20 20;" xml:space="preserve">
<style type="text/css">
	.st0{fill:#818181;}
</style>
<path class="st0" d="M18.41,8.8c-0.16-0.95-0.47-1.85-0.94-2.69c-0.82-1.5-2.01-2.62-3.51-3.43c-0.88-0.47-1.83-0.76-2.82-0.88
	c-0.47-0.06-0.94-0.09-1.41-0.07C9.36,1.75,9,1.78,8.63,1.84c-0.78,0.13-1.53,0.36-2.24,0.7C5.2,3.12,4.19,3.92,3.37,4.96
	C2.65,5.86,2.16,6.88,1.84,7.99c-0.2,0.71-0.28,1.43-0.29,2.16c-0.01,0.41,0.04,0.83,0.09,1.24c0.08,0.69,0.27,1.35,0.53,1.99
	c0.16,0.39,0.34,0.77,0.55,1.13C2.8,14.67,2.82,14.82,2.77,15c-0.1,0.31-0.18,0.63-0.27,0.94c-0.18,0.64-0.37,1.27-0.55,1.91
	c-0.02,0.06-0.04,0.13-0.02,0.2c0.05,0.22,0.22,0.33,0.47,0.27c0.29-0.07,0.58-0.16,0.87-0.25c0.64-0.19,1.29-0.37,1.93-0.57
	c0.23-0.07,0.43-0.04,0.62,0.08c0.14,0.09,0.29,0.17,0.45,0.24c1.19,0.58,2.45,0.87,3.78,0.87c0.19,0,0.39-0.01,0.58-0.02
	c0.42-0.02,0.83-0.09,1.24-0.17c0.88-0.18,1.71-0.51,2.48-0.96c0.99-0.58,1.82-1.34,2.5-2.25c0.66-0.89,1.13-1.87,1.4-2.94
	c0.21-0.82,0.3-1.65,0.27-2.49C18.5,9.5,18.46,9.15,18.41,8.8z M14.14,13.12c-0.19,0.66-0.82,1.17-1.5,1.21
	c-0.08,0.01-0.16,0.03-0.25,0.01c-1.25,0-2.43-0.32-3.48-1.03c-1.3-0.87-2.24-2.03-2.72-3.54C5.97,9.11,5.88,8.42,5.91,7.72
	c0.02-0.64,0.32-1.13,0.87-1.46C6.89,6.2,7.01,6.14,7.13,6.1C7.28,6.06,7.4,6.08,7.51,6.2c0.15,0.16,0.27,0.34,0.4,0.52
	c0.23,0.3,0.46,0.6,0.68,0.91C8.72,7.8,8.72,7.91,8.57,8.07C8.36,8.28,8.14,8.5,7.92,8.71C7.75,8.89,7.69,9.08,7.75,9.32
	c0.22,1.03,0.77,1.85,1.61,2.47c0.5,0.38,1.07,0.61,1.68,0.72c0.16,0.03,0.29-0.01,0.41-0.12c0.22-0.19,0.41-0.4,0.62-0.61
	c0.05-0.05,0.1-0.1,0.16-0.15c0.11-0.1,0.24-0.1,0.36-0.02c0.15,0.1,0.28,0.23,0.43,0.33c0.3,0.23,0.61,0.46,0.91,0.69
	c0.04,0.03,0.07,0.06,0.11,0.1C14.16,12.84,14.19,12.97,14.14,13.12z"/>
</svg>
